<mxfile host="drawio-plugin" modified="2024-05-19T02:44:31.621Z" agent="5.0 (Windows NT 10.0; Win64; x64) AppleWebKit/537.36 (KHTML, like Gecko) Chrome/111.0.0.0 Safari/537.36" etag="-i0H6HUPSAt85XJMGjGz" version="20.5.3" type="embed"><diagram id="23iRSUPoRavnBvh4doch" name="Page-1"><mxGraphModel dx="822" dy="878" grid="1" gridSize="10" guides="1" tooltips="1" connect="1" arrows="1" fold="1" page="1" pageScale="1" pageWidth="827" pageHeight="1169" math="0" shadow="0"><root><mxCell id="0"/><mxCell id="1" parent="0"/><mxCell id="2" value="&lt;font style=&quot;font-size: 18px;&quot;&gt;&lt;font style=&quot;font-size: 18px;&quot;&gt;&amp;nbsp;Bubble sorted logic: e.g. [24,69,80,57,13]&lt;br style=&quot;&quot;&gt;&lt;br style=&quot;&quot;&gt;1st: sorted the 1st max number and put it in last position&lt;br style=&quot;&quot;&gt;1) [24,69,80,57,13]&lt;br&gt;2) [24,69,80,57,13]&lt;br&gt;3) [24,69,57,80,13]&lt;br&gt;4) [24,69,57,13,80]&lt;br&gt;&lt;br&gt;2nd: sorted the 2nd max number and put it in 2nd last position&lt;br&gt;1)&amp;nbsp;&lt;/font&gt;[24,69,57,13,80]&lt;br&gt;2）[24,57,69,13,80]&lt;br&gt;3)&amp;nbsp;[24,57,13,69,80]&lt;br&gt;&lt;br&gt;3rd:&lt;br&gt;1) [24,57,13,69,80]&lt;br&gt;2) [24,13, 57,69,80]&lt;br&gt;&lt;br&gt;4th:&lt;br&gt;1) [13, 24, 57,69,80]&lt;br&gt;&lt;/font&gt;" style="rounded=1;whiteSpace=wrap;html=1;align=left;fontSize=15;" vertex="1" parent="1"><mxGeometry x="20" y="130" width="410" height="630" as="geometry"/></mxCell><mxCell id="3" value="Overall:&lt;br&gt;1.总共有5个元素&lt;br&gt;2.一共进行了4此排序，可以看成是一个外层循环&lt;br&gt;3.每一轮的排序去欸的那个一个属的位置，确认最大数&lt;br&gt;4.当进行比较时，如果前面的数大于后面的数，就交换&lt;br&gt;5.每轮比较次数在减少，4-&amp;gt;3-&amp;gt;2-&amp;gt;1" style="whiteSpace=wrap;html=1;fontSize=18;align=left;" vertex="1" parent="1"><mxGeometry x="460" y="270" width="320" height="190" as="geometry"/></mxCell></root></mxGraphModel></diagram></mxfile>